<mxfile host="app.diagrams.net" modified="2024-02-29T09:50:28.536Z" agent="Mozilla/5.0 (Windows NT 10.0; Win64; x64; rv:123.0) Gecko/20100101 Firefox/123.0" etag="T8nJsggFANWQH6kWKj1K" version="23.0.2" type="device">
  <diagram id="C5RBs43oDa-KdzZeNtuy" name="Page-1">
    <mxGraphModel dx="1050" dy="1727" grid="1" gridSize="10" guides="1" tooltips="1" connect="1" arrows="1" fold="1" page="1" pageScale="1" pageWidth="827" pageHeight="1169" math="0" shadow="0">
      <root>
        <mxCell id="WIyWlLk6GJQsqaUBKTNV-0" />
        <mxCell id="WIyWlLk6GJQsqaUBKTNV-1" parent="WIyWlLk6GJQsqaUBKTNV-0" />
        <mxCell id="WIyWlLk6GJQsqaUBKTNV-10" value="POSSUI&lt;br&gt;" style="rhombus;whiteSpace=wrap;html=1;shadow=0;fontFamily=Helvetica;fontSize=12;align=center;strokeWidth=1;spacing=6;spacingTop=-4;" parent="WIyWlLk6GJQsqaUBKTNV-1" vertex="1">
          <mxGeometry x="420" y="160" width="100" height="80" as="geometry" />
        </mxCell>
        <mxCell id="oQ3fLR2kd6ALp7ecHCus-0" value="CODIGO&lt;br&gt;" style="ellipse;whiteSpace=wrap;html=1;" vertex="1" parent="WIyWlLk6GJQsqaUBKTNV-1">
          <mxGeometry x="157.5" y="60" width="105" height="70" as="geometry" />
        </mxCell>
        <mxCell id="oQ3fLR2kd6ALp7ecHCus-1" value="PRECO&lt;br&gt;" style="ellipse;whiteSpace=wrap;html=1;" vertex="1" parent="WIyWlLk6GJQsqaUBKTNV-1">
          <mxGeometry y="100" width="105" height="70" as="geometry" />
        </mxCell>
        <mxCell id="oQ3fLR2kd6ALp7ecHCus-2" style="edgeStyle=orthogonalEdgeStyle;rounded=0;orthogonalLoop=1;jettySize=auto;html=1;exitX=0.5;exitY=1;exitDx=0;exitDy=0;" edge="1" parent="WIyWlLk6GJQsqaUBKTNV-1">
          <mxGeometry relative="1" as="geometry">
            <mxPoint x="820" y="280" as="sourcePoint" />
            <mxPoint x="820" y="280" as="targetPoint" />
          </mxGeometry>
        </mxCell>
        <mxCell id="oQ3fLR2kd6ALp7ecHCus-6" value="" style="endArrow=none;html=1;rounded=0;entryX=0.933;entryY=0.786;entryDx=0;entryDy=0;entryPerimeter=0;exitX=0;exitY=0.25;exitDx=0;exitDy=0;" edge="1" parent="WIyWlLk6GJQsqaUBKTNV-1" target="oQ3fLR2kd6ALp7ecHCus-1">
          <mxGeometry width="50" height="50" relative="1" as="geometry">
            <mxPoint x="150" y="190" as="sourcePoint" />
            <mxPoint x="440" y="270" as="targetPoint" />
          </mxGeometry>
        </mxCell>
        <mxCell id="oQ3fLR2kd6ALp7ecHCus-9" value="" style="endArrow=none;html=1;rounded=0;entryX=0.5;entryY=1;entryDx=0;entryDy=0;exitX=0.5;exitY=0;exitDx=0;exitDy=0;" edge="1" parent="WIyWlLk6GJQsqaUBKTNV-1" target="oQ3fLR2kd6ALp7ecHCus-0">
          <mxGeometry width="50" height="50" relative="1" as="geometry">
            <mxPoint x="210" y="180" as="sourcePoint" />
            <mxPoint x="440" y="270" as="targetPoint" />
          </mxGeometry>
        </mxCell>
        <mxCell id="oQ3fLR2kd6ALp7ecHCus-10" value="UNIDADES&lt;br&gt;" style="ellipse;whiteSpace=wrap;html=1;strokeColor=default;dashed=1;" vertex="1" parent="WIyWlLk6GJQsqaUBKTNV-1">
          <mxGeometry x="262.5" y="20" width="105" height="70" as="geometry" />
        </mxCell>
        <mxCell id="oQ3fLR2kd6ALp7ecHCus-12" value="" style="endArrow=none;dashed=1;html=1;rounded=0;entryX=0.395;entryY=1;entryDx=0;entryDy=0;entryPerimeter=0;" edge="1" parent="WIyWlLk6GJQsqaUBKTNV-1" target="oQ3fLR2kd6ALp7ecHCus-10">
          <mxGeometry width="50" height="50" relative="1" as="geometry">
            <mxPoint x="262.5" y="180" as="sourcePoint" />
            <mxPoint x="312.5" y="130" as="targetPoint" />
          </mxGeometry>
        </mxCell>
        <mxCell id="oQ3fLR2kd6ALp7ecHCus-13" value="TAXA IVA" style="ellipse;whiteSpace=wrap;html=1;aspect=fixed;" vertex="1" parent="WIyWlLk6GJQsqaUBKTNV-1">
          <mxGeometry x="10" y="200" width="80" height="80" as="geometry" />
        </mxCell>
        <mxCell id="oQ3fLR2kd6ALp7ecHCus-14" value="" style="endArrow=none;html=1;rounded=0;exitX=0.975;exitY=0.638;exitDx=0;exitDy=0;exitPerimeter=0;" edge="1" parent="WIyWlLk6GJQsqaUBKTNV-1" source="oQ3fLR2kd6ALp7ecHCus-13">
          <mxGeometry width="50" height="50" relative="1" as="geometry">
            <mxPoint x="100" y="260" as="sourcePoint" />
            <mxPoint x="150" y="210" as="targetPoint" />
          </mxGeometry>
        </mxCell>
        <mxCell id="oQ3fLR2kd6ALp7ecHCus-16" value="" style="endArrow=none;html=1;rounded=0;entryX=1;entryY=1;entryDx=0;entryDy=0;" edge="1" parent="WIyWlLk6GJQsqaUBKTNV-1" source="WIyWlLk6GJQsqaUBKTNV-6">
          <mxGeometry width="50" height="50" relative="1" as="geometry">
            <mxPoint x="360" y="300" as="sourcePoint" />
            <mxPoint x="270" y="220" as="targetPoint" />
          </mxGeometry>
        </mxCell>
        <mxCell id="oQ3fLR2kd6ALp7ecHCus-26" value="1&lt;br&gt;" style="edgeLabel;html=1;align=center;verticalAlign=middle;resizable=0;points=[];" vertex="1" connectable="0" parent="oQ3fLR2kd6ALp7ecHCus-16">
          <mxGeometry x="0.3153" y="-4" relative="1" as="geometry">
            <mxPoint x="11" y="-10" as="offset" />
          </mxGeometry>
        </mxCell>
        <mxCell id="oQ3fLR2kd6ALp7ecHCus-18" value="" style="endArrow=none;html=1;rounded=0;entryX=0.5;entryY=1;entryDx=0;entryDy=0;exitX=0;exitY=0.25;exitDx=0;exitDy=0;" edge="1" parent="WIyWlLk6GJQsqaUBKTNV-1" target="WIyWlLk6GJQsqaUBKTNV-6">
          <mxGeometry width="50" height="50" relative="1" as="geometry">
            <mxPoint x="420" y="330" as="sourcePoint" />
            <mxPoint x="427.5" y="340" as="targetPoint" />
          </mxGeometry>
        </mxCell>
        <mxCell id="oQ3fLR2kd6ALp7ecHCus-28" value="N&lt;br&gt;" style="edgeLabel;html=1;align=center;verticalAlign=middle;resizable=0;points=[];" vertex="1" connectable="0" parent="oQ3fLR2kd6ALp7ecHCus-18">
          <mxGeometry x="0.2962" y="-2" relative="1" as="geometry">
            <mxPoint y="-9" as="offset" />
          </mxGeometry>
        </mxCell>
        <mxCell id="oQ3fLR2kd6ALp7ecHCus-20" value="" style="endArrow=none;html=1;rounded=0;entryX=1;entryY=1;entryDx=0;entryDy=0;" edge="1" parent="WIyWlLk6GJQsqaUBKTNV-1" target="WIyWlLk6GJQsqaUBKTNV-6">
          <mxGeometry width="50" height="50" relative="1" as="geometry">
            <mxPoint x="360" y="300" as="sourcePoint" />
            <mxPoint x="270" y="220" as="targetPoint" />
          </mxGeometry>
        </mxCell>
        <mxCell id="WIyWlLk6GJQsqaUBKTNV-6" value="TEM&lt;br&gt;" style="rhombus;whiteSpace=wrap;html=1;shadow=0;fontFamily=Helvetica;fontSize=12;align=center;strokeWidth=1;spacing=6;spacingTop=-4;rotation=-60;" parent="WIyWlLk6GJQsqaUBKTNV-1" vertex="1">
          <mxGeometry x="310" y="240" width="70" height="80" as="geometry" />
        </mxCell>
        <mxCell id="oQ3fLR2kd6ALp7ecHCus-21" value="" style="endArrow=none;html=1;rounded=0;entryX=0.5;entryY=1;entryDx=0;entryDy=0;exitX=0.433;exitY=0.05;exitDx=0;exitDy=0;exitPerimeter=0;" edge="1" parent="WIyWlLk6GJQsqaUBKTNV-1" target="WIyWlLk6GJQsqaUBKTNV-10">
          <mxGeometry width="50" height="50" relative="1" as="geometry">
            <mxPoint x="471.96000000000004" y="322" as="sourcePoint" />
            <mxPoint x="440" y="270" as="targetPoint" />
          </mxGeometry>
        </mxCell>
        <mxCell id="oQ3fLR2kd6ALp7ecHCus-24" value="" style="endArrow=none;html=1;rounded=0;entryX=0.5;entryY=1;entryDx=0;entryDy=0;exitX=0.5;exitY=0;exitDx=0;exitDy=0;" edge="1" parent="WIyWlLk6GJQsqaUBKTNV-1" source="WIyWlLk6GJQsqaUBKTNV-10">
          <mxGeometry width="50" height="50" relative="1" as="geometry">
            <mxPoint x="390" y="320" as="sourcePoint" />
            <mxPoint x="470" y="100" as="targetPoint" />
          </mxGeometry>
        </mxCell>
        <mxCell id="oQ3fLR2kd6ALp7ecHCus-27" value="" style="endArrow=none;html=1;rounded=0;exitX=0;exitY=0.75;exitDx=0;exitDy=0;" edge="1" parent="WIyWlLk6GJQsqaUBKTNV-1">
          <mxGeometry width="50" height="50" relative="1" as="geometry">
            <mxPoint x="420" y="350" as="sourcePoint" />
            <mxPoint x="350" y="305" as="targetPoint" />
          </mxGeometry>
        </mxCell>
        <mxCell id="oQ3fLR2kd6ALp7ecHCus-29" value="" style="endArrow=none;html=1;rounded=0;exitX=0.5;exitY=0;exitDx=0;exitDy=0;entryX=1;entryY=1;entryDx=0;entryDy=0;" edge="1" parent="WIyWlLk6GJQsqaUBKTNV-1" target="WIyWlLk6GJQsqaUBKTNV-10">
          <mxGeometry width="50" height="50" relative="1" as="geometry">
            <mxPoint x="496.88" y="320" as="sourcePoint" />
            <mxPoint x="490.005" y="237.5" as="targetPoint" />
          </mxGeometry>
        </mxCell>
        <mxCell id="oQ3fLR2kd6ALp7ecHCus-30" value="N&lt;br&gt;" style="edgeLabel;html=1;align=center;verticalAlign=middle;resizable=0;points=[];" vertex="1" connectable="0" parent="oQ3fLR2kd6ALp7ecHCus-29">
          <mxGeometry x="0.3606" y="2" relative="1" as="geometry">
            <mxPoint x="16" as="offset" />
          </mxGeometry>
        </mxCell>
        <mxCell id="oQ3fLR2kd6ALp7ecHCus-31" value="" style="endArrow=none;html=1;rounded=0;entryX=0.35;entryY=0.975;entryDx=0;entryDy=0;entryPerimeter=0;exitX=0.32;exitY=0.125;exitDx=0;exitDy=0;exitPerimeter=0;" edge="1" parent="WIyWlLk6GJQsqaUBKTNV-1" source="WIyWlLk6GJQsqaUBKTNV-10">
          <mxGeometry width="50" height="50" relative="1" as="geometry">
            <mxPoint x="390" y="270" as="sourcePoint" />
            <mxPoint x="452" y="99" as="targetPoint" />
          </mxGeometry>
        </mxCell>
        <mxCell id="oQ3fLR2kd6ALp7ecHCus-32" value="N&lt;br&gt;" style="edgeLabel;html=1;align=center;verticalAlign=middle;resizable=0;points=[];" vertex="1" connectable="0" parent="oQ3fLR2kd6ALp7ecHCus-31">
          <mxGeometry x="0.1268" y="-2" relative="1" as="geometry">
            <mxPoint x="-14" y="5" as="offset" />
          </mxGeometry>
        </mxCell>
        <mxCell id="oQ3fLR2kd6ALp7ecHCus-33" value="NUMERO&lt;br&gt;" style="ellipse;whiteSpace=wrap;html=1;aspect=fixed;" vertex="1" parent="WIyWlLk6GJQsqaUBKTNV-1">
          <mxGeometry x="440" y="-60" width="60" height="60" as="geometry" />
        </mxCell>
        <mxCell id="oQ3fLR2kd6ALp7ecHCus-34" value="DATA&lt;br&gt;" style="ellipse;whiteSpace=wrap;html=1;aspect=fixed;" vertex="1" parent="WIyWlLk6GJQsqaUBKTNV-1">
          <mxGeometry x="540" y="-50" width="60" height="60" as="geometry" />
        </mxCell>
        <mxCell id="oQ3fLR2kd6ALp7ecHCus-35" value="" style="endArrow=none;html=1;rounded=0;exitX=0.5;exitY=0;exitDx=0;exitDy=0;entryX=0.5;entryY=1;entryDx=0;entryDy=0;" edge="1" parent="WIyWlLk6GJQsqaUBKTNV-1" target="oQ3fLR2kd6ALp7ecHCus-33">
          <mxGeometry width="50" height="50" relative="1" as="geometry">
            <mxPoint x="470" y="60" as="sourcePoint" />
            <mxPoint x="464" y="30" as="targetPoint" />
          </mxGeometry>
        </mxCell>
        <mxCell id="oQ3fLR2kd6ALp7ecHCus-36" value="" style="endArrow=none;html=1;rounded=0;" edge="1" parent="WIyWlLk6GJQsqaUBKTNV-1">
          <mxGeometry width="50" height="50" relative="1" as="geometry">
            <mxPoint x="490" y="60" as="sourcePoint" />
            <mxPoint x="550" as="targetPoint" />
          </mxGeometry>
        </mxCell>
        <mxCell id="oQ3fLR2kd6ALp7ecHCus-37" value="TEM&lt;br&gt;" style="rhombus;whiteSpace=wrap;html=1;shadow=0;fontFamily=Helvetica;fontSize=12;align=center;strokeWidth=1;spacing=6;spacingTop=-4;rotation=0;" vertex="1" parent="WIyWlLk6GJQsqaUBKTNV-1">
          <mxGeometry x="610" y="40" width="70" height="80" as="geometry" />
        </mxCell>
        <mxCell id="oQ3fLR2kd6ALp7ecHCus-39" value="" style="endArrow=none;html=1;rounded=0;entryX=1;entryY=0.5;entryDx=0;entryDy=0;exitX=0;exitY=0.5;exitDx=0;exitDy=0;" edge="1" parent="WIyWlLk6GJQsqaUBKTNV-1" source="oQ3fLR2kd6ALp7ecHCus-37">
          <mxGeometry width="50" height="50" relative="1" as="geometry">
            <mxPoint x="520" y="200" as="sourcePoint" />
            <mxPoint x="530" y="80" as="targetPoint" />
            <Array as="points">
              <mxPoint x="510" y="80" />
            </Array>
          </mxGeometry>
        </mxCell>
        <mxCell id="oQ3fLR2kd6ALp7ecHCus-41" value="N&lt;br&gt;" style="edgeLabel;html=1;align=center;verticalAlign=middle;resizable=0;points=[];" vertex="1" connectable="0" parent="oQ3fLR2kd6ALp7ecHCus-39">
          <mxGeometry x="0.275" relative="1" as="geometry">
            <mxPoint as="offset" />
          </mxGeometry>
        </mxCell>
        <mxCell id="oQ3fLR2kd6ALp7ecHCus-40" value="" style="endArrow=none;html=1;rounded=0;entryX=1;entryY=0.75;entryDx=0;entryDy=0;exitX=0.086;exitY=0.625;exitDx=0;exitDy=0;exitPerimeter=0;" edge="1" parent="WIyWlLk6GJQsqaUBKTNV-1" source="oQ3fLR2kd6ALp7ecHCus-37">
          <mxGeometry width="50" height="50" relative="1" as="geometry">
            <mxPoint x="520" y="200" as="sourcePoint" />
            <mxPoint x="530" y="90" as="targetPoint" />
            <Array as="points">
              <mxPoint x="510" y="90" />
            </Array>
          </mxGeometry>
        </mxCell>
        <mxCell id="oQ3fLR2kd6ALp7ecHCus-42" value="FORNECEDOR&lt;br&gt;" style="rounded=1;whiteSpace=wrap;html=1;fontSize=12;glass=0;strokeWidth=1;shadow=0;" vertex="1" parent="WIyWlLk6GJQsqaUBKTNV-1">
          <mxGeometry x="750" y="60" width="120" height="40" as="geometry" />
        </mxCell>
        <mxCell id="oQ3fLR2kd6ALp7ecHCus-45" value="" style="endArrow=none;html=1;rounded=0;entryX=1;entryY=0.5;entryDx=0;entryDy=0;exitX=0;exitY=0.5;exitDx=0;exitDy=0;" edge="1" parent="WIyWlLk6GJQsqaUBKTNV-1" source="oQ3fLR2kd6ALp7ecHCus-42" target="oQ3fLR2kd6ALp7ecHCus-37">
          <mxGeometry width="50" height="50" relative="1" as="geometry">
            <mxPoint x="520" y="200" as="sourcePoint" />
            <mxPoint x="570" y="150" as="targetPoint" />
          </mxGeometry>
        </mxCell>
        <mxCell id="oQ3fLR2kd6ALp7ecHCus-46" value="1&lt;br&gt;" style="text;html=1;align=center;verticalAlign=middle;resizable=0;points=[];autosize=1;strokeColor=none;fillColor=none;" vertex="1" parent="WIyWlLk6GJQsqaUBKTNV-1">
          <mxGeometry x="705" y="50" width="30" height="30" as="geometry" />
        </mxCell>
        <mxCell id="oQ3fLR2kd6ALp7ecHCus-47" value="" style="endArrow=none;html=1;rounded=0;" edge="1" parent="WIyWlLk6GJQsqaUBKTNV-1">
          <mxGeometry width="50" height="50" relative="1" as="geometry">
            <mxPoint x="760" y="60" as="sourcePoint" />
            <mxPoint x="750" as="targetPoint" />
          </mxGeometry>
        </mxCell>
        <mxCell id="oQ3fLR2kd6ALp7ecHCus-48" value="MORADA" style="ellipse;whiteSpace=wrap;html=1;aspect=fixed;" vertex="1" parent="WIyWlLk6GJQsqaUBKTNV-1">
          <mxGeometry x="720" y="-60" width="60" height="60" as="geometry" />
        </mxCell>
        <mxCell id="oQ3fLR2kd6ALp7ecHCus-49" value="PRODUTOS&lt;br&gt;" style="rounded=0;whiteSpace=wrap;html=1;" vertex="1" parent="WIyWlLk6GJQsqaUBKTNV-1">
          <mxGeometry x="150" y="180" width="120" height="40" as="geometry" />
        </mxCell>
        <mxCell id="oQ3fLR2kd6ALp7ecHCus-51" value="NOME" style="ellipse;whiteSpace=wrap;html=1;" vertex="1" parent="WIyWlLk6GJQsqaUBKTNV-1">
          <mxGeometry x="157.5" y="305" width="105" height="70" as="geometry" />
        </mxCell>
        <mxCell id="oQ3fLR2kd6ALp7ecHCus-52" value="" style="endArrow=none;html=1;rounded=0;entryX=0.5;entryY=1;entryDx=0;entryDy=0;exitX=0.5;exitY=0;exitDx=0;exitDy=0;" edge="1" parent="WIyWlLk6GJQsqaUBKTNV-1" source="oQ3fLR2kd6ALp7ecHCus-51" target="oQ3fLR2kd6ALp7ecHCus-49">
          <mxGeometry width="50" height="50" relative="1" as="geometry">
            <mxPoint x="190" y="290" as="sourcePoint" />
            <mxPoint x="240" y="240" as="targetPoint" />
          </mxGeometry>
        </mxCell>
        <mxCell id="oQ3fLR2kd6ALp7ecHCus-53" value="ITEMS&lt;br&gt;" style="rounded=0;whiteSpace=wrap;html=1;" vertex="1" parent="WIyWlLk6GJQsqaUBKTNV-1">
          <mxGeometry x="420" y="320" width="100" height="50" as="geometry" />
        </mxCell>
        <mxCell id="oQ3fLR2kd6ALp7ecHCus-54" value="ENCOMENDA" style="rounded=0;whiteSpace=wrap;html=1;" vertex="1" parent="WIyWlLk6GJQsqaUBKTNV-1">
          <mxGeometry x="410" y="60" width="100" height="50" as="geometry" />
        </mxCell>
        <mxCell id="oQ3fLR2kd6ALp7ecHCus-55" value="NOME" style="ellipse;whiteSpace=wrap;html=1;aspect=fixed;" vertex="1" parent="WIyWlLk6GJQsqaUBKTNV-1">
          <mxGeometry x="800" y="-60" width="60" height="60" as="geometry" />
        </mxCell>
        <mxCell id="oQ3fLR2kd6ALp7ecHCus-56" value="NIF" style="ellipse;whiteSpace=wrap;html=1;aspect=fixed;" vertex="1" parent="WIyWlLk6GJQsqaUBKTNV-1">
          <mxGeometry x="890" y="-50" width="60" height="60" as="geometry" />
        </mxCell>
        <mxCell id="oQ3fLR2kd6ALp7ecHCus-57" value="" style="endArrow=none;html=1;rounded=0;entryX=0.5;entryY=1;entryDx=0;entryDy=0;exitX=0.667;exitY=-0.05;exitDx=0;exitDy=0;exitPerimeter=0;" edge="1" parent="WIyWlLk6GJQsqaUBKTNV-1" source="oQ3fLR2kd6ALp7ecHCus-42" target="oQ3fLR2kd6ALp7ecHCus-55">
          <mxGeometry width="50" height="50" relative="1" as="geometry">
            <mxPoint x="830" y="50" as="sourcePoint" />
            <mxPoint x="850" y="10" as="targetPoint" />
          </mxGeometry>
        </mxCell>
        <mxCell id="oQ3fLR2kd6ALp7ecHCus-61" value="" style="endArrow=none;html=1;rounded=0;" edge="1" parent="WIyWlLk6GJQsqaUBKTNV-1" target="oQ3fLR2kd6ALp7ecHCus-56">
          <mxGeometry width="50" height="50" relative="1" as="geometry">
            <mxPoint x="850" y="60" as="sourcePoint" />
            <mxPoint x="900" y="10" as="targetPoint" />
          </mxGeometry>
        </mxCell>
        <mxCell id="oQ3fLR2kd6ALp7ecHCus-62" value="TIPO FORNECEDOR" style="rounded=0;whiteSpace=wrap;html=1;" vertex="1" parent="WIyWlLk6GJQsqaUBKTNV-1">
          <mxGeometry x="712.5" y="280" width="120" height="60" as="geometry" />
        </mxCell>
        <mxCell id="oQ3fLR2kd6ALp7ecHCus-63" value="QUANTIDADE" style="ellipse;whiteSpace=wrap;html=1;" vertex="1" parent="WIyWlLk6GJQsqaUBKTNV-1">
          <mxGeometry x="420" y="420" width="105" height="70" as="geometry" />
        </mxCell>
        <mxCell id="oQ3fLR2kd6ALp7ecHCus-64" value="" style="endArrow=none;html=1;rounded=0;entryX=0.5;entryY=1;entryDx=0;entryDy=0;" edge="1" parent="WIyWlLk6GJQsqaUBKTNV-1" target="oQ3fLR2kd6ALp7ecHCus-53">
          <mxGeometry width="50" height="50" relative="1" as="geometry">
            <mxPoint x="470" y="420" as="sourcePoint" />
            <mxPoint x="520" y="370" as="targetPoint" />
          </mxGeometry>
        </mxCell>
        <mxCell id="oQ3fLR2kd6ALp7ecHCus-65" value="TEM" style="rhombus;whiteSpace=wrap;html=1;shadow=0;fontFamily=Helvetica;fontSize=12;align=center;strokeWidth=1;spacing=6;spacingTop=-4;" vertex="1" parent="WIyWlLk6GJQsqaUBKTNV-1">
          <mxGeometry x="735" y="150" width="75" height="60" as="geometry" />
        </mxCell>
        <mxCell id="oQ3fLR2kd6ALp7ecHCus-66" value="" style="endArrow=none;html=1;rounded=0;entryX=0.075;entryY=1.05;entryDx=0;entryDy=0;entryPerimeter=0;" edge="1" parent="WIyWlLk6GJQsqaUBKTNV-1" target="oQ3fLR2kd6ALp7ecHCus-42">
          <mxGeometry width="50" height="50" relative="1" as="geometry">
            <mxPoint x="760" y="160" as="sourcePoint" />
            <mxPoint x="780" y="80" as="targetPoint" />
          </mxGeometry>
        </mxCell>
        <mxCell id="oQ3fLR2kd6ALp7ecHCus-67" value="" style="endArrow=none;html=1;rounded=0;entryX=0.25;entryY=1;entryDx=0;entryDy=0;exitX=0.6;exitY=0.167;exitDx=0;exitDy=0;exitPerimeter=0;" edge="1" parent="WIyWlLk6GJQsqaUBKTNV-1" source="oQ3fLR2kd6ALp7ecHCus-65" target="oQ3fLR2kd6ALp7ecHCus-42">
          <mxGeometry width="50" height="50" relative="1" as="geometry">
            <mxPoint x="780" y="150" as="sourcePoint" />
            <mxPoint x="830" y="110" as="targetPoint" />
          </mxGeometry>
        </mxCell>
        <mxCell id="oQ3fLR2kd6ALp7ecHCus-68" value="N" style="edgeLabel;html=1;align=center;verticalAlign=middle;resizable=0;points=[];" vertex="1" connectable="0" parent="oQ3fLR2kd6ALp7ecHCus-67">
          <mxGeometry x="0.3669" y="-1" relative="1" as="geometry">
            <mxPoint x="9" y="11" as="offset" />
          </mxGeometry>
        </mxCell>
        <mxCell id="oQ3fLR2kd6ALp7ecHCus-69" value="" style="endArrow=none;html=1;rounded=0;entryX=0.5;entryY=1;entryDx=0;entryDy=0;" edge="1" parent="WIyWlLk6GJQsqaUBKTNV-1" source="oQ3fLR2kd6ALp7ecHCus-62" target="oQ3fLR2kd6ALp7ecHCus-65">
          <mxGeometry width="50" height="50" relative="1" as="geometry">
            <mxPoint x="747.5" y="260" as="sourcePoint" />
            <mxPoint x="797.5" y="210" as="targetPoint" />
          </mxGeometry>
        </mxCell>
        <mxCell id="oQ3fLR2kd6ALp7ecHCus-70" value="1" style="edgeLabel;html=1;align=center;verticalAlign=middle;resizable=0;points=[];" vertex="1" connectable="0" parent="oQ3fLR2kd6ALp7ecHCus-69">
          <mxGeometry x="0.4" y="1" relative="1" as="geometry">
            <mxPoint x="19" y="9" as="offset" />
          </mxGeometry>
        </mxCell>
        <mxCell id="oQ3fLR2kd6ALp7ecHCus-71" value="CODIGO" style="ellipse;whiteSpace=wrap;html=1;" vertex="1" parent="WIyWlLk6GJQsqaUBKTNV-1">
          <mxGeometry x="690" y="410" width="80" height="60" as="geometry" />
        </mxCell>
        <mxCell id="oQ3fLR2kd6ALp7ecHCus-74" value="" style="endArrow=none;html=1;rounded=0;entryX=0.138;entryY=1.017;entryDx=0;entryDy=0;entryPerimeter=0;" edge="1" parent="WIyWlLk6GJQsqaUBKTNV-1" target="oQ3fLR2kd6ALp7ecHCus-62">
          <mxGeometry width="50" height="50" relative="1" as="geometry">
            <mxPoint x="729" y="410" as="sourcePoint" />
            <mxPoint x="762.5" y="350" as="targetPoint" />
          </mxGeometry>
        </mxCell>
        <mxCell id="oQ3fLR2kd6ALp7ecHCus-75" value="NUMERO FAX" style="ellipse;whiteSpace=wrap;html=1;aspect=fixed;" vertex="1" parent="WIyWlLk6GJQsqaUBKTNV-1">
          <mxGeometry x="910" y="50" width="60" height="60" as="geometry" />
        </mxCell>
        <mxCell id="oQ3fLR2kd6ALp7ecHCus-76" value="" style="endArrow=none;html=1;rounded=0;entryX=0;entryY=0.5;entryDx=0;entryDy=0;" edge="1" parent="WIyWlLk6GJQsqaUBKTNV-1" target="oQ3fLR2kd6ALp7ecHCus-75">
          <mxGeometry width="50" height="50" relative="1" as="geometry">
            <mxPoint x="870" y="80" as="sourcePoint" />
            <mxPoint x="920" y="30" as="targetPoint" />
          </mxGeometry>
        </mxCell>
        <mxCell id="oQ3fLR2kd6ALp7ecHCus-77" value="DESIGNACAO" style="ellipse;whiteSpace=wrap;html=1;" vertex="1" parent="WIyWlLk6GJQsqaUBKTNV-1">
          <mxGeometry x="790" y="410" width="80" height="60" as="geometry" />
        </mxCell>
        <mxCell id="oQ3fLR2kd6ALp7ecHCus-80" value="" style="endArrow=none;html=1;rounded=0;" edge="1" parent="WIyWlLk6GJQsqaUBKTNV-1">
          <mxGeometry width="50" height="50" relative="1" as="geometry">
            <mxPoint x="820" y="410" as="sourcePoint" />
            <mxPoint x="820" y="340" as="targetPoint" />
          </mxGeometry>
        </mxCell>
        <mxCell id="oQ3fLR2kd6ALp7ecHCus-81" value="TEM" style="rhombus;whiteSpace=wrap;html=1;shadow=0;fontFamily=Helvetica;fontSize=12;align=center;strokeWidth=1;spacing=6;spacingTop=-4;rotation=-15;" vertex="1" parent="WIyWlLk6GJQsqaUBKTNV-1">
          <mxGeometry x="860" y="160" width="75" height="60" as="geometry" />
        </mxCell>
        <mxCell id="oQ3fLR2kd6ALp7ecHCus-82" value="" style="endArrow=none;html=1;rounded=0;entryX=0.808;entryY=1.025;entryDx=0;entryDy=0;entryPerimeter=0;exitX=0.269;exitY=0.129;exitDx=0;exitDy=0;exitPerimeter=0;" edge="1" parent="WIyWlLk6GJQsqaUBKTNV-1" source="oQ3fLR2kd6ALp7ecHCus-81" target="oQ3fLR2kd6ALp7ecHCus-42">
          <mxGeometry width="50" height="50" relative="1" as="geometry">
            <mxPoint x="862.5" y="160" as="sourcePoint" />
            <mxPoint x="912.5" y="110" as="targetPoint" />
          </mxGeometry>
        </mxCell>
        <mxCell id="oQ3fLR2kd6ALp7ecHCus-83" value="" style="endArrow=none;html=1;rounded=0;entryX=1;entryY=1;entryDx=0;entryDy=0;" edge="1" parent="WIyWlLk6GJQsqaUBKTNV-1" target="oQ3fLR2kd6ALp7ecHCus-42">
          <mxGeometry width="50" height="50" relative="1" as="geometry">
            <mxPoint x="895" y="160" as="sourcePoint" />
            <mxPoint x="945" y="110" as="targetPoint" />
          </mxGeometry>
        </mxCell>
        <mxCell id="oQ3fLR2kd6ALp7ecHCus-84" value="N" style="edgeLabel;html=1;align=center;verticalAlign=middle;resizable=0;points=[];" vertex="1" connectable="0" parent="oQ3fLR2kd6ALp7ecHCus-83">
          <mxGeometry x="0.4107" y="-2" relative="1" as="geometry">
            <mxPoint x="11" y="3" as="offset" />
          </mxGeometry>
        </mxCell>
        <mxCell id="oQ3fLR2kd6ALp7ecHCus-85" value="CONDICOES PAGAMENTO" style="rounded=0;whiteSpace=wrap;html=1;" vertex="1" parent="WIyWlLk6GJQsqaUBKTNV-1">
          <mxGeometry x="890" y="280" width="120" height="60" as="geometry" />
        </mxCell>
        <mxCell id="oQ3fLR2kd6ALp7ecHCus-86" value="" style="endArrow=none;html=1;rounded=0;entryX=0.5;entryY=1;entryDx=0;entryDy=0;" edge="1" parent="WIyWlLk6GJQsqaUBKTNV-1" target="oQ3fLR2kd6ALp7ecHCus-81">
          <mxGeometry width="50" height="50" relative="1" as="geometry">
            <mxPoint x="925" y="280" as="sourcePoint" />
            <mxPoint x="975" y="230" as="targetPoint" />
          </mxGeometry>
        </mxCell>
        <mxCell id="oQ3fLR2kd6ALp7ecHCus-87" value="1" style="edgeLabel;html=1;align=center;verticalAlign=middle;resizable=0;points=[];" vertex="1" connectable="0" parent="oQ3fLR2kd6ALp7ecHCus-86">
          <mxGeometry x="0.3422" y="-3" relative="1" as="geometry">
            <mxPoint x="5" y="2" as="offset" />
          </mxGeometry>
        </mxCell>
        <mxCell id="oQ3fLR2kd6ALp7ecHCus-88" value="CODIGO" style="ellipse;whiteSpace=wrap;html=1;" vertex="1" parent="WIyWlLk6GJQsqaUBKTNV-1">
          <mxGeometry x="950" y="160" width="80" height="60" as="geometry" />
        </mxCell>
        <mxCell id="oQ3fLR2kd6ALp7ecHCus-89" value="" style="endArrow=none;html=1;rounded=0;entryX=0.5;entryY=1;entryDx=0;entryDy=0;exitX=0.833;exitY=-0.033;exitDx=0;exitDy=0;exitPerimeter=0;" edge="1" parent="WIyWlLk6GJQsqaUBKTNV-1" source="oQ3fLR2kd6ALp7ecHCus-85" target="oQ3fLR2kd6ALp7ecHCus-88">
          <mxGeometry width="50" height="50" relative="1" as="geometry">
            <mxPoint x="970" y="280" as="sourcePoint" />
            <mxPoint x="1020" y="230" as="targetPoint" />
          </mxGeometry>
        </mxCell>
        <mxCell id="oQ3fLR2kd6ALp7ecHCus-90" value="DESIGNACAO" style="ellipse;whiteSpace=wrap;html=1;" vertex="1" parent="WIyWlLk6GJQsqaUBKTNV-1">
          <mxGeometry x="910" y="400" width="80" height="60" as="geometry" />
        </mxCell>
        <mxCell id="oQ3fLR2kd6ALp7ecHCus-91" value="" style="endArrow=none;html=1;rounded=0;entryX=0.5;entryY=1;entryDx=0;entryDy=0;" edge="1" parent="WIyWlLk6GJQsqaUBKTNV-1" target="oQ3fLR2kd6ALp7ecHCus-85">
          <mxGeometry width="50" height="50" relative="1" as="geometry">
            <mxPoint x="950" y="400" as="sourcePoint" />
            <mxPoint x="1000" y="350" as="targetPoint" />
          </mxGeometry>
        </mxCell>
      </root>
    </mxGraphModel>
  </diagram>
</mxfile>
